<?xml version="1.0" encoding="UTF-8" standalone="no"?>
<svg
   xmlns:dc="http://purl.org/dc/elements/1.1/"
   xmlns:cc="http://creativecommons.org/ns#"
   xmlns:rdf="http://www.w3.org/1999/02/22-rdf-syntax-ns#"
   xmlns:svg="http://www.w3.org/2000/svg"
   xmlns="http://www.w3.org/2000/svg"
   xmlns:sodipodi="http://sodipodi.sourceforge.net/DTD/sodipodi-0.dtd"
   xmlns:inkscape="http://www.inkscape.org/namespaces/inkscape"
   inkscape:version="1.0 (4035a4fb49, 2020-05-01)"
   sodipodi:docname="181230.svg"
   id="svg20"
   version="1.1"
   viewBox="0 0 100 63.6"
   height="63.6pt"
   width="100pt">
  <metadata
     id="metadata24">
    <rdf:RDF>
      <cc:Work
         rdf:about="">
        <dc:format>image/svg+xml</dc:format>
        <dc:type
           rdf:resource="http://purl.org/dc/dcmitype/StillImage" />
      </cc:Work>
    </rdf:RDF>
  </metadata>
  <sodipodi:namedview
     inkscape:current-layer="svg20"
     inkscape:window-maximized="1"
     inkscape:window-y="-11"
     inkscape:window-x="-11"
     inkscape:cy="41.931203"
     inkscape:cx="66.666667"
     inkscape:zoom="9.5990568"
     showgrid="false"
     id="namedview22"
     inkscape:window-height="1000"
     inkscape:window-width="1920"
     inkscape:pageshadow="2"
     inkscape:pageopacity="0"
     guidetolerance="10"
     gridtolerance="10"
     objecttolerance="10"
     borderopacity="1"
     bordercolor="#666666"
     pagecolor="#ffffff" />
  <defs
     id="defs5">
    <clipPath
       id="clip1">
      <path
         id="path2"
         d="M 0 0 L 61 0 L 61 63.601563 L 0 63.601563 Z M 0 0 " />
    </clipPath>
  </defs>
  <g
     id="surface1">
    <g
       id="g9"
       clip-rule="nonzero"
       clip-path="url(#clip1)">
      <path
         id="path7"
         d="M 26.707031 0.0390625 C 26.773438 0.105469 26.90625 0.234375 26.96875 0.300781 C 27.894531 2.558594 28.523438 5.03125 30.175781 6.902344 C 30.6875 7.464844 31.410156 8.128906 32.234375 7.808594 C 33.390625 7.234375 34.132813 6.09375 34.710938 4.980469 C 35.460938 3.386719 36.128906 1.753906 36.648438 0.0742188 C 36.742188 0.0546875 36.9375 0.015625 37.03125 -0.00390625 C 37.054688 2.132813 36.984375 4.300781 37.53125 6.386719 C 37.769531 7.332031 38.113281 8.390625 39.027344 8.890625 C 39.792969 9.257813 40.664063 8.890625 41.316406 8.441406 C 43.382813 7.039063 44.785156 4.925781 46.273438 2.96875 C 46.46875 3.148438 46.515625 3.355469 46.410156 3.597656 C 45.84375 5.71875 45.125 7.851563 45.113281 10.070313 C 45.179688 10.898438 45.214844 11.921875 45.96875 12.445313 C 46.753906 12.925781 47.699219 12.601563 48.511719 12.359375 C 50.707031 11.582031 52.617188 10.191406 54.460938 8.800781 C 54.503906 8.894531 54.589844 9.085938 54.632813 9.179688 C 53.105469 11.402344 51.453125 13.664063 50.871094 16.351563 C 50.699219 17.355469 51.539063 18.316406 52.53125 18.398438 C 55.320313 18.664063 57.988281 17.644531 60.632813 16.925781 C 60.414063 17.660156 59.65625 17.941406 59.109375 18.382813 C 57.617188 19.554688 56.144531 20.804688 55.078125 22.390625 C 54.664063 23.019531 54.367188 23.871094 54.738281 24.589844 C 55.179688 25.371094 56.078125 25.726563 56.910156 25.917969 C 57.886719 26.167969 58.898438 26.191406 59.878906 26.421875 C 59.128906 27.242188 58.410156 28.101563 57.917969 29.109375 C 57.003906 30.9375 56.699219 33.027344 56.78125 35.058594 C 56.808594 35.914063 57.183594 36.734375 57.746094 37.375 C 56.703125 37.605469 55.53125 37.878906 54.839844 38.757813 C 54.332031 39.417969 54.667969 40.292969 55.042969 40.929688 C 56.414063 43.214844 58.761719 44.609375 60.742188 46.296875 C 60.328125 46.339844 59.914063 46.339844 59.527344 46.183594 C 57.441406 45.5 55.261719 44.929688 53.046875 45.050781 C 52.390625 45.089844 51.671875 45.304688 51.296875 45.878906 C 50.941406 46.382813 50.984375 47.042969 51.089844 47.621094 C 51.601563 49.773438 52.929688 51.589844 54.136719 53.40625 C 54.390625 53.804688 54.722656 54.175781 54.792969 54.660156 C 52.816406 53.5 51.007813 51.996094 48.835938 51.191406 C 48.054688 50.929688 47.191406 50.730469 46.382813 50.957031 C 45.660156 51.21875 45.308594 51.992188 45.261719 52.710938 C 45.09375 54.558594 45.5625 56.382813 46.035156 58.148438 C 46.238281 58.941406 46.574219 59.703125 46.621094 60.527344 C 45.703125 59.8125 45.214844 58.714844 44.40625 57.894531 C 43.179688 56.554688 41.949219 55.007813 40.132813 54.480469 C 39.214844 54.257813 38.484375 55.058594 38.160156 55.820313 C 37.035156 58.25 37.257813 60.996094 37.191406 63.601563 C 37.097656 63.566406 36.914063 63.503906 36.824219 63.472656 C 36.027344 61.476563 35.480469 59.339844 34.230469 57.558594 C 33.722656 56.832031 33.210938 55.949219 32.273438 55.753906 C 31.480469 55.597656 30.816406 56.1875 30.324219 56.730469 C 29.101563 58.09375 28.429688 59.828125 27.832031 61.53125 C 27.601563 62.242188 27.382813 62.972656 26.953125 63.59375 C 26.859375 62.300781 26.636719 61.023438 26.636719 59.726563 C 26.597656 58.449219 26.335938 57.171875 25.832031 56 C 25.5625 55.40625 25.175781 54.769531 24.523438 54.550781 C 23.863281 54.359375 23.207031 54.695313 22.65625 55.027344 C 20.828125 56.1875 19.519531 57.957031 18.21875 59.648438 C 17.9375 60.003906 17.699219 60.429688 17.269531 60.628906 C 17.191406 59.695313 17.71875 58.882813 17.941406 58.007813 C 18.269531 56.789063 18.496094 55.546875 18.6875 54.304688 C 18.820313 53.457031 18.699219 52.570313 18.347656 51.785156 C 17.964844 50.988281 16.945313 50.695313 16.140625 50.960938 C 13.515625 51.691406 11.261719 53.320313 9.109375 54.929688 C 9.210938 54.027344 9.902344 53.390625 10.351563 52.652344 C 11.410156 51.050781 12.4375 49.367188 12.839844 47.464844 C 12.984375 46.777344 12.757813 45.96875 12.136719 45.585938 C 11.523438 45.175781 10.757813 45.203125 10.054688 45.203125 C 8.121094 45.1875 6.242188 45.730469 4.421875 46.328125 C 3.980469 46.484375 3.511719 46.535156 3.046875 46.542969 C 3.703125 45.796875 4.59375 45.324219 5.332031 44.667969 C 6.78125 43.457031 8.308594 42.183594 9.078125 40.414063 C 9.375 39.78125 9.191406 38.996094 8.648438 38.5625 C 7.535156 37.628906 6.023438 37.496094 4.640625 37.289063 C 3.144531 37.023438 1.613281 37.109375 0.101563 37.109375 C 0.0507813 36.859375 0.195313 36.660156 0.445313 36.613281 C 2.382813 36 4.296875 35.269531 6.039063 34.210938 C 6.90625 33.671875 7.769531 32.949219 8.011719 31.90625 C 7.890625 31.339844 7.660156 30.78125 7.203125 30.40625 C 5.292969 28.738281 2.820313 27.992188 0.480469 27.164063 C 0.242188 27.109375 0.136719 26.871094 0 26.699219 C 2.070313 26.714844 4.164063 26.671875 6.1875 26.203125 C 7.1875 25.90625 8.363281 25.671875 8.972656 24.730469 C 9.410156 24.066406 9.097656 23.222656 8.699219 22.621094 C 7.320313 20.445313 5.089844 19.050781 3.152344 17.425781 C 3.132813 17.359375 3.089844 17.226563 3.070313 17.15625 C 3.308594 17.175781 3.554688 17.175781 3.789063 17.246094 C 5.640625 17.882813 7.550781 18.414063 9.511719 18.566406 C 10.4375 18.597656 11.480469 18.628906 12.253906 18.042969 C 12.847656 17.554688 12.777344 16.699219 12.664063 16.019531 C 12.171875 13.699219 10.722656 11.761719 9.375 9.867188 C 9.15625 9.589844 9.046875 9.253906 8.964844 8.917969 C 11.269531 10.347656 13.441406 12.179688 16.160156 12.761719 C 16.808594 12.890625 17.566406 12.785156 18.007813 12.238281 C 18.699219 11.445313 18.558594 10.320313 18.515625 9.347656 C 18.367188 7.722656 17.960938 6.132813 17.421875 4.597656 C 17.226563 4.101563 17.125 3.578125 17.136719 3.042969 C 17.933594 3.636719 18.363281 4.554688 19.027344 5.277344 C 20.136719 6.558594 21.230469 7.941406 22.746094 8.761719 C 23.351563 9.09375 24.160156 9.324219 24.769531 8.871094 C 25.652344 8.21875 25.929688 7.078125 26.164063 6.0625 C 26.601563 4.085938 26.515625 2.042969 26.707031 0.0390625 "
         style=" stroke:none;fill-rule:nonzero;fill:rgb(92.199707%,5.499268%,55.299377%);fill-opacity:1;" />
    </g>
    <path
       id="path11"
       d="M 85.226563 27.710938 C 85.636719 27.035156 86.289063 26.328125 87.167969 26.53125 C 87.269531 26.667969 87.375 26.800781 87.484375 26.933594 C 87.683594 28.609375 86.828125 30.3125 85.410156 31.207031 C 84.90625 31.507813 84.351563 31.859375 83.738281 31.722656 C 84.082031 30.335938 84.5 28.945313 85.226563 27.710938 Z M 98.511719 25.339844 C 97.1875 25.101563 96.070313 26.011719 95.089844 26.769531 C 95.207031 26.269531 95.285156 25.769531 95.363281 25.265625 C 94.183594 25.273438 93 25.238281 91.820313 25.273438 C 91.539063 25.28125 91.535156 25.597656 91.472656 25.800781 C 91.019531 27.996094 90.523438 30.1875 90.171875 32.402344 C 90.015625 33.421875 89.480469 34.386719 88.625 34.984375 C 87.523438 35.753906 86.164063 36.222656 84.808594 36.105469 C 84.210938 36.050781 83.71875 35.574219 83.597656 34.992188 C 83.5 34.460938 83.289063 33.863281 83.597656 33.363281 C 83.917969 32.925781 84.515625 32.914063 84.992188 32.777344 C 86.542969 32.402344 88.015625 31.464844 88.796875 30.039063 C 89.320313 29.085938 89.707031 27.96875 89.464844 26.875 C 89.285156 26.070313 88.664063 25.367188 87.851563 25.171875 C 85.960938 24.742188 83.832031 25.289063 82.492188 26.714844 C 80.703125 28.5625 79.773438 31.132813 79.683594 33.675781 C 79.617188 34.433594 79.292969 35.246094 78.621094 35.660156 C 77.921875 36.074219 76.652344 35.660156 76.792969 34.710938 C 77.171875 32.785156 77.71875 30.890625 78.058594 28.957031 C 78.234375 27.964844 78.113281 26.84375 77.449219 26.050781 C 76.832031 25.332031 75.816406 25.144531 74.914063 25.207031 C 73.898438 25.265625 73.003906 25.832031 72.261719 26.488281 C 72.691406 24.683594 72.964844 22.84375 73.449219 21.050781 C 73.519531 20.746094 73.675781 20.171875 73.195313 20.15625 C 72.25 20.273438 71.3125 20.457031 70.363281 20.554688 C 70.015625 20.558594 69.648438 20.785156 69.609375 21.152344 C 69.199219 23.242188 68.699219 25.3125 68.320313 27.40625 L 68.246094 27.523438 C 67.984375 29.125 67.550781 30.691406 67.3125 32.296875 C 67.101563 33.976563 65.660156 35.207031 64.183594 35.835938 C 63.417969 36.148438 62.535156 36.328125 61.730469 36.070313 C 60.835938 35.746094 60.480469 34.699219 60.597656 33.828125 C 60.769531 32.363281 60.992188 30.882813 61.558594 29.511719 C 61.957031 28.496094 62.417969 27.4375 63.289063 26.734375 C 63.632813 26.433594 64.292969 26.46875 64.472656 26.933594 C 64.789063 27.652344 64.421875 28.390625 64.269531 29.097656 C 64.792969 29.34375 65.472656 29.527344 65.960938 29.109375 C 67.246094 28.007813 66.621094 25.550781 64.96875 25.191406 C 63.203125 24.738281 61.289063 25.328125 59.878906 26.421875 C 59.128906 27.242188 58.410156 28.101563 57.917969 29.109375 C 57.003906 30.9375 56.699219 33.027344 56.78125 35.058594 C 56.808594 35.914063 57.183594 36.734375 57.746094 37.375 C 58.796875 38.289063 60.285156 38.613281 61.644531 38.375 C 63.5 38.117188 65.152344 37.101563 66.449219 35.785156 C 66.351563 36.488281 66.121094 37.167969 66.042969 37.875 C 65.964844 38.34375 66.582031 38.292969 66.882813 38.257813 C 67.847656 38.132813 68.820313 38.3125 69.78125 38.210938 C 70.394531 35.417969 70.871094 32.59375 71.566406 29.824219 C 71.789063 28.988281 72.265625 28.171875 73.042969 27.75 C 73.550781 27.429688 74.3125 27.824219 74.34375 28.421875 C 74.421875 30.394531 73.738281 32.28125 73.355469 34.191406 C 73.144531 35.167969 73.128906 36.269531 73.714844 37.128906 C 74.351563 38.175781 75.691406 38.613281 76.859375 38.386719 C 78.171875 38.226563 79.21875 37.273438 79.941406 36.21875 C 80.140625 36.671875 80.375 37.125 80.75 37.460938 C 81.59375 38.273438 82.832031 38.433594 83.953125 38.433594 C 86.082031 38.363281 88.015625 37.164063 89.40625 35.613281 C 89.273438 36.492188 89.011719 37.339844 88.902344 38.21875 C 89.898438 38.292969 90.898438 38.140625 91.894531 38.273438 C 92.304688 38.359375 92.769531 38.117188 92.816406 37.671875 C 93.410156 34.773438 94.09375 31.890625 94.636719 28.984375 C 94.804688 28.054688 95.894531 27.417969 96.777344 27.601563 C 97.125 27.972656 97 28.546875 97.25 28.976563 C 98.046875 29.359375 99.070313 29.164063 99.597656 28.433594 C 100.464844 27.410156 99.847656 25.578125 98.511719 25.339844 "
       style=" stroke:none;fill-rule:nonzero;fill:rgb(5.099487%,5.899048%,5.899048%);fill-opacity:1;" />
    <path
       id="path13"
       d="M 23.507813 25.636719 C 24.023438 24.496094 25.929688 24.527344 26.472656 25.632813 C 26.722656 26.050781 26.660156 26.554688 26.671875 27.023438 C 26.726563 29.402344 26.195313 31.796875 25.183594 33.953125 C 24.472656 35.308594 23.675781 36.738281 22.308594 37.53125 C 21.09375 38.289063 19.582031 38.613281 18.179688 38.269531 C 17.234375 38.019531 16.472656 37.277344 16.210938 36.332031 C 15.640625 37.234375 14.792969 38.007813 13.742188 38.285156 C 12.675781 38.550781 11.398438 38.496094 10.574219 37.675781 C 9.757813 36.867188 9.679688 35.613281 9.832031 34.539063 C 10.3125 31.65625 10.996094 28.8125 11.601563 25.957031 C 11.65625 25.59375 11.90625 25.195313 12.324219 25.234375 C 13.378906 25.289063 14.429688 25.234375 15.480469 25.296875 C 15.449219 25.847656 15.320313 26.382813 15.1875 26.910156 C 14.628906 29.394531 14.15625 31.894531 13.605469 34.378906 C 13.445313 34.890625 13.613281 35.5 14.097656 35.773438 C 14.792969 35.949219 15.441406 35.425781 15.792969 34.871094 C 16.558594 33.734375 16.574219 32.320313 16.890625 31.03125 C 17.292969 29.359375 17.660156 27.683594 17.980469 25.992188 C 18.03125 25.730469 18.148438 25.488281 18.269531 25.253906 C 19.457031 25.292969 20.644531 25.222656 21.832031 25.300781 C 21.847656 26.117188 21.566406 26.898438 21.421875 27.695313 C 20.9375 30.074219 20.390625 32.4375 19.898438 34.816406 C 19.796875 35.1875 20.003906 35.667969 20.414063 35.730469 C 21.15625 35.964844 21.902344 35.523438 22.359375 34.964844 C 24.207031 32.941406 24.800781 30.136719 25.253906 27.511719 C 24.867188 27.507813 24.476563 27.574219 24.101563 27.484375 C 23.410156 27.1875 23.242188 26.273438 23.507813 25.636719 "
       style=" stroke:none;fill-rule:nonzero;fill:rgb(100%,99.598694%,100%);fill-opacity:1;" />
    <path
       id="path15"
       d="M 52.210938 25.128906 C 52.976563 24.503906 54.367188 24.679688 54.78125 25.640625 C 55.089844 26.167969 55.054688 26.785156 55.050781 27.371094 C 54.933594 30.546875 54.078125 33.808594 52.03125 36.300781 C 51.007813 37.5625 49.453125 38.410156 47.8125 38.441406 C 46.953125 38.4375 46.035156 38.261719 45.367188 37.6875 C 44.980469 37.359375 44.761719 36.886719 44.539063 36.445313 C 43.90625 36.996094 43.390625 37.722656 42.59375 38.054688 C 41.609375 38.503906 40.371094 38.652344 39.425781 38.035156 C 38.632813 37.558594 38.203125 36.644531 38.148438 35.742188 C 38.070313 33.859375 38.757813 32.074219 39.023438 30.234375 C 38.359375 30.269531 37.710938 30.421875 37.078125 30.628906 C 36.839844 31.207031 36.871094 31.84375 36.734375 32.445313 C 36.355469 34.507813 35.207031 36.472656 33.433594 37.632813 C 32.183594 38.414063 30.574219 38.609375 29.167969 38.15625 C 28.332031 37.878906 27.535156 37.328125 27.148438 36.511719 C 26.464844 35.210938 26.554688 33.671875 26.855469 32.277344 C 27.273438 30.304688 27.984375 28.292969 29.46875 26.867188 C 30.632813 25.671875 32.289063 24.847656 33.988281 25.058594 C 35.085938 25.132813 36.285156 25.65625 36.683594 26.757813 C 37.09375 27.566406 36.878906 28.53125 37.296875 29.324219 C 38.042969 29.074219 39.089844 29.15625 39.476563 28.328125 C 39.699219 27.410156 39.742188 26.441406 40.0625 25.550781 C 40.277344 25.136719 40.792969 25.296875 41.171875 25.261719 C 42.066406 25.324219 42.988281 25.140625 43.863281 25.378906 C 43.230469 28.128906 42.710938 30.90625 42.097656 33.664063 C 42 34.242188 41.789063 34.867188 42.042969 35.433594 C 42.300781 35.847656 42.90625 35.859375 43.300781 35.632813 C 44.089844 35.199219 44.480469 34.3125 44.699219 33.480469 C 45.285156 30.9375 45.847656 28.386719 46.355469 25.820313 C 46.417969 25.617188 46.472656 25.25 46.757813 25.277344 C 47.894531 25.25 49.035156 25.257813 50.171875 25.28125 C 50.167969 25.566406 50.171875 25.855469 50.101563 26.136719 C 49.5 28.820313 48.914063 31.507813 48.351563 34.195313 C 48.289063 34.597656 48.097656 35.0625 48.324219 35.441406 C 48.667969 35.773438 49.210938 35.894531 49.65625 35.710938 C 50.507813 35.402344 51.0625 34.621094 51.542969 33.890625 C 52.664063 31.953125 53.320313 29.75 53.457031 27.519531 C 53.011719 27.476563 52.441406 27.695313 52.097656 27.3125 C 51.570313 26.695313 51.675781 25.703125 52.210938 25.128906 "
       style=" stroke:none;fill-rule:nonzero;fill:rgb(100%,99.598694%,100%);fill-opacity:1;" />
    <path
       id="path17"
       d="M 33.722656 26.710938 C 34.519531 26.417969 35.066406 27.371094 34.925781 28.050781 C 34.652344 28.523438 34.109375 28.886719 34.109375 29.480469 C 34.089844 30.152344 34.9375 30.539063 34.785156 31.210938 C 34.496094 32.640625 34.050781 34.089844 33.152344 35.261719 C 32.742188 35.761719 32.066406 36.175781 31.40625 35.964844 C 30.8125 35.785156 30.523438 35.132813 30.546875 34.550781 C 30.550781 32.128906 31.105469 29.632813 32.515625 27.625 C 32.804688 27.203125 33.210938 26.832031 33.722656 26.710938 "
       style=" stroke:none;fill-rule:nonzero;fill:rgb(92.199707%,5.499268%,55.299377%);fill-opacity:1;" />
  </g>
  <path
     transform="scale(0.75000003)"
     id="path849"
     d="m 15.894151,51.090685 c -1.610333,-0.316473 -2.648215,-1.626953 -2.790787,-3.523786 -0.08315,-1.106305 0.229593,-2.868967 1.745101,-9.835504 0.72317,-3.324292 0.879917,-3.845354 1.192895,-3.965455 0.22337,-0.08572 3.42451,-0.08333 4.054505,0.003 l 0.494149,0.06773 -0.06673,0.42711 c -0.0367,0.23491 -0.31918,1.599099 -0.627738,3.031532 -1.191054,5.529297 -1.848244,8.756056 -1.848244,9.07475 0,0.482747 0.113519,0.78478 0.416649,1.108542 0.548689,0.586037 1.732937,0.254634 2.448752,-0.685263 0.610258,-0.801298 0.913079,-1.670336 1.377379,-3.952817 0.247428,-1.216353 0.567143,-2.703787 0.710477,-3.305409 0.143333,-0.601621 0.451897,-2.022469 0.685695,-3.157439 0.233799,-1.134969 0.496399,-2.20148 0.583557,-2.370024 l 0.158468,-0.306443 1.898553,0.0011 c 1.044204,6.31e-4 2.074351,0.0302 2.289216,0.06572 0.370666,0.06127 0.390664,0.08461 0.390664,0.456028 0,0.2153 -0.401153,2.260149 -0.891451,4.544108 -0.490299,2.28396 -1.07668,5.015481 -1.30307,6.070046 -0.406201,1.892162 -0.409208,1.922308 -0.228451,2.291069 0.222629,0.454183 0.552962,0.632527 1.172849,0.633212 1.754731,0.0019 3.785245,-2.678359 4.956596,-6.542757 0.338064,-1.115303 0.978508,-4.001673 0.980582,-4.419308 7.83e-4,-0.157716 -0.105903,-0.18231 -0.790839,-0.18231 -0.757311,0 -0.806743,-0.015 -1.136612,-0.344868 -1.04296,-1.042959 -0.493102,-2.717988 1.016808,-3.097503 0.948763,-0.238472 2.061745,0.246368 2.461581,1.072319 0.198308,0.409651 0.220975,0.63606 0.220975,2.207264 0,4.063943 -1.058691,7.692727 -3.179353,10.8976 -1.459604,2.205842 -3.351462,3.43697 -5.759491,3.747993 -1.556153,0.200994 -3.009632,-0.206371 -3.877103,-1.086633 -0.446429,-0.453011 -0.935404,-1.233125 -0.935404,-1.492349 0,-0.219833 -0.153629,-0.148422 -0.332711,0.154653 -0.0931,0.157568 -0.464576,0.58175 -0.825493,0.942628 -1.247522,1.247387 -2.995163,1.798973 -4.661979,1.4714 z"
     style="fill:#000000;stroke-width:0.104177" />
  <path
     transform="scale(0.75000003)"
     id="path851"
     d="m 53.384673,51.029181 c -1.294579,-0.452932 -2.13372,-1.493068 -2.408749,-2.985705 -0.173742,-0.942931 -0.0019,-2.437011 0.589894,-5.127431 0.526255,-2.392659 0.552615,-2.651673 0.269859,-2.651673 -0.287494,0 -1.239441,0.188589 -1.867502,0.369969 -0.658457,0.190157 -0.689579,0.251127 -0.920045,1.802417 -0.412125,2.774065 -1.423071,4.876763 -3.162831,6.578474 -1.44958,1.417878 -2.717744,1.979659 -4.645712,2.057993 -3.553152,0.144364 -5.660655,-1.903762 -5.667917,-5.508229 -0.0031,-1.533806 0.498513,-3.83932 1.257852,-5.781459 1.374374,-3.515199 4.162568,-5.970629 7.195053,-6.336343 0.726221,-0.08758 2.116702,0.09336 2.862906,0.372555 0.773286,0.289324 1.602942,1.071758 1.940944,1.830474 0.147831,0.331836 0.322883,1.001815 0.389005,1.488842 0.154764,1.139921 0.387922,1.979558 0.549444,1.978632 0.26911,-0.0015 1.867802,-0.421826 2.136666,-0.561712 0.534437,-0.27806 0.751394,-0.619869 0.906022,-1.427406 0.08118,-0.423962 0.223587,-1.167151 0.31646,-1.651531 0.223953,-1.168039 0.390982,-1.543544 0.747891,-1.681367 0.38865,-0.15008 4.247402,-0.08693 4.406419,0.07212 0.08317,0.08318 0.0283,0.510421 -0.200685,1.562653 -1.203353,5.529634 -2.19529,10.471757 -2.19529,10.937582 0,0.722162 0.13119,1.039291 0.511236,1.23582 1.085866,0.561524 2.433639,-0.482898 3.075771,-2.383489 0.194422,-0.575456 1.276731,-5.373418 1.928702,-8.550096 0.503102,-2.451323 0.584428,-2.728578 0.840576,-2.865664 0.207344,-0.110966 4.139816,-0.146702 4.417504,-0.04014 0.103438,0.03969 0.164786,0.189142 0.164786,0.401434 0,0.18601 -0.370216,2.021019 -0.822701,4.077798 -1.562802,7.10374 -1.812515,8.373192 -1.71439,8.715334 0.203992,0.711277 1.257703,1.013106 2.153495,0.616854 2.137166,-0.945369 4.424109,-5.7621 4.819231,-10.150204 l 0.07269,-0.807245 -0.748705,0.0114 c -0.594355,0.009 -0.792803,-0.02851 -0.962615,-0.18219 -0.576577,-0.521794 -0.706813,-1.534728 -0.304248,-2.366319 0.285195,-0.589133 0.759842,-0.896913 1.50118,-0.973426 1.010961,-0.104341 1.734124,0.303058 2.233057,1.258009 0.263985,0.505264 0.278129,0.607438 0.268525,1.939746 -0.04367,6.058286 -2.680116,11.913537 -6.298606,13.988518 -0.800109,0.458813 -2.020255,0.815018 -2.999102,0.875547 -2.015132,0.12461 -3.686712,-0.698124 -4.32443,-2.128439 -0.108572,-0.243513 -0.242763,-0.442751 -0.298201,-0.442751 -0.05544,0 -0.5148,0.393977 -1.020803,0.875503 -0.555728,0.528849 -1.145692,0.982272 -1.489995,1.145153 -1.220041,0.577172 -2.572376,0.735469 -3.502638,0.41 z M 43.226864,47.828938 c 0.286486,-0.135667 0.670106,-0.404767 0.852488,-0.598 0.75508,-0.800004 1.567331,-2.526076 2.067837,-4.394252 0.367758,-1.372684 0.345811,-1.715458 -0.159637,-2.493327 -0.607843,-0.93545 -0.553007,-1.419296 0.275819,-2.433696 0.427344,-0.523026 0.46911,-1.101926 0.123826,-1.716276 -0.755087,-1.343497 -2.369031,-0.691023 -3.629584,1.467341 -1.275467,2.183903 -1.996399,4.95714 -2.019138,7.767108 -0.01149,1.419772 -0.0033,1.478138 0.264132,1.883133 0.508709,0.770371 1.301434,0.954975 2.224257,0.517969 z"
     style="fill:#000000;stroke-width:0.104177" />
  <path
     transform="scale(0.75000003)"
     id="path853"
     d="m 79.949222,51.137769 c -0.81931,-0.158519 -2.031087,-0.673377 -2.634134,-1.119185 -0.462594,-0.341977 -1.094608,-1.368601 -1.340092,-2.176805 -0.203,-0.668335 -0.216559,-0.888298 -0.16131,-2.616926 0.0625,-1.955576 0.241801,-3.108541 0.702996,-4.520567 0.864201,-2.645897 2.832854,-5.298379 4.631962,-6.240915 2.397613,-1.256088 5.27282,-1.354063 6.557271,-0.223444 1.485732,1.307795 1.40987,3.93938 -0.135126,4.6873 -0.40659,0.196826 -0.50992,0.207125 -0.99058,0.09872 -0.843374,-0.190203 -0.826107,-0.150771 -0.566625,-1.293964 0.20073,-0.884356 0.213261,-1.071858 0.100554,-1.504773 -0.163181,-0.626795 -0.434425,-0.859156 -1.002925,-0.859156 -1.585858,0 -3.517549,3.827911 -4.179405,8.282064 -0.3194,2.149494 -0.185341,3.19789 0.498333,3.897169 0.493342,0.504602 0.8851,0.664831 1.75117,0.716233 2.259696,0.134113 5.113417,-1.572788 6.153222,-3.680437 0.19696,-0.399232 0.384867,-1.047394 0.513428,-1.771007 0.195646,-1.101211 0.67208,-3.426465 1.760045,-8.589968 0.283709,-1.346486 0.692659,-3.288793 0.908781,-4.316236 0.277031,-1.317015 0.455812,-1.9411 0.606056,-2.115616 0.191541,-0.222481 0.432689,-0.279198 2.382531,-0.560357 2.331281,-0.336161 2.466452,-0.325745 2.466452,0.190065 0,0.141005 -0.09781,0.639221 -0.217351,1.107146 -0.295602,1.157066 -1.455532,6.76544 -1.408884,6.812088 0.02058,0.02058 0.172224,-0.07353 0.336986,-0.209137 1.404238,-1.155743 2.817957,-1.62058 4.303593,-1.415042 1.65227,0.228591 2.67372,1.169782 3.01496,2.778065 0.24378,1.148929 0.17303,1.648718 -0.88772,6.27153 -0.80029,3.487693 -0.86599,3.947107 -0.61845,4.324896 0.29951,0.457104 0.77281,0.674816 1.46704,0.674816 0.71671,0 1.12591,-0.198685 1.54746,-0.751369 0.49477,-0.648685 0.69223,-1.261429 0.80511,-2.498428 0.2956,-3.239409 1.27453,-5.862141 2.98681,-8.002222 1.4678,-1.834523 3.01996,-2.723698 5.27942,-3.024375 0.93067,-0.123849 2.30588,3.23e-4 2.94056,0.265505 0.54152,0.226262 1.24145,0.946001 1.49648,1.538838 0.51205,1.190293 0.35506,2.596589 -0.48069,4.305756 -1.02328,2.092692 -2.74684,3.387899 -5.45324,4.097953 -1.28578,0.337338 -1.5116,0.45598 -1.72538,0.906504 -0.32295,0.680555 -0.0439,2.302296 0.5034,2.925636 0.45159,0.514341 0.8508,0.653689 1.87269,0.653689 1.71584,0 3.72096,-0.777125 4.94024,-1.914694 0.99603,-0.929276 1.39495,-1.830316 1.78127,-4.023389 0.65434,-3.714521 1.61819,-8.163429 1.8102,-8.355438 0.16863,-0.168636 0.4129,-0.187068 2.47896,-0.187068 2.63719,0 2.39437,-0.137223 2.13705,1.207657 -0.0852,0.445104 -0.14376,0.819835 -0.13022,0.832737 0.0135,0.0129 0.37622,-0.236347 0.80595,-0.553886 1.10268,-0.814804 2.13833,-1.289821 2.95506,-1.35538 0.81976,-0.0658 1.3173,0.08883 1.85823,0.577533 1.36288,1.231274 1.12745,3.336025 -0.46173,4.127945 -0.58605,0.292043 -1.36322,0.354742 -1.9334,0.155978 -0.29175,-0.101704 -0.33705,-0.180365 -0.48922,-0.849375 -0.26142,-1.14938 -0.27008,-1.158328 -1.05984,-1.094933 -0.49416,0.03967 -0.80046,0.133421 -1.15794,0.354433 -0.90404,0.558926 -0.98988,0.772537 -1.68854,4.202205 -0.34433,1.69027 -0.92437,4.452888 -1.28898,6.139151 -0.58961,2.726887 -0.69218,3.091102 -0.92753,3.293541 -0.25858,0.222423 -0.31529,0.226442 -2.48893,0.176442 -1.22337,-0.02814 -2.23767,-0.06252 -2.254,-0.07639 -0.0163,-0.01387 0.11258,-0.716965 0.28648,-1.562428 0.1739,-0.845462 0.31618,-1.607385 0.31618,-1.693161 0,-0.08797 -0.31481,0.141021 -0.72218,0.525312 -0.95008,0.896263 -1.72442,1.460451 -2.75606,2.00809 -3.43231,1.822015 -7.58478,1.21845 -8.81042,-1.280603 -0.13434,-0.273908 -0.25971,-0.516699 -0.27861,-0.539535 -0.0189,-0.02284 -0.42751,0.37564 -0.90803,0.885503 -1.04641,1.110308 -1.87136,1.631874 -2.96644,1.875505 -3.117188,0.69351 -5.517947,-1.572232 -5.031684,-4.748709 0.0686,-0.448097 0.334564,-1.698422 0.591042,-2.7785 1.031428,-4.343566 1.116049,-6.019452 0.328197,-6.499834 -0.702668,-0.428443 -1.52157,-0.162354 -2.300333,0.747455 -0.824681,0.963455 -1.023067,1.668534 -2.502279,8.89327 l -0.853178,4.167076 -2.23506,0.0677 c -1.229282,0.03724 -2.312768,0.04717 -2.407745,0.02208 -0.29767,-0.07864 -0.303147,-0.329514 -0.03541,-1.621809 0.368687,-1.779568 0.372013,-1.768475 -0.336215,-1.121195 -1.385965,1.266694 -3.207863,2.300693 -4.783898,2.715051 -0.79414,0.208788 -2.69912,0.347366 -3.266381,0.237613 z m 33.660758,-9.30798 c 1.91706,-1.132805 3.11369,-3.14103 3.11369,-5.225502 0,-0.600396 -0.0382,-0.744714 -0.2697,-1.019882 -0.47981,-0.570221 -1.36444,-0.377545 -2.2011,0.479406 -0.85907,0.879915 -1.87635,3.149991 -2.47267,5.51781 -0.0887,0.352054 -0.1612,0.674126 -0.1612,0.715716 0,0.04159 0.27479,0.05574 0.61064,0.03145 0.48719,-0.03524 0.76625,-0.136123 1.38034,-0.498994 z"
     style="fill:#ffffff;stroke-width:0.104177" />
</svg>
